<svg width="320" height="195" viewBox="0 0 320 195" fill="none" xmlns="http://www.w3.org/2000/svg">
<path d="M0.236786 43V0.618408H10.2506L22.2874 25.8046L34.4253 0.618408H44.3379V43H34.5264V21.4552L27.446 36.3242H17.2299L9.94713 21.354V43H0.236786Z" fill="white"/>
<path d="M70.1933 37.3357C72.8906 37.3357 74.2392 36.3916 74.2392 34.5035V9.11496C74.2392 7.22684 72.8906 6.28278 70.1933 6.28278H65.7427C62.9779 6.28278 61.5956 7.22684 61.5956 9.11496V34.5035C61.5956 36.3916 62.9779 37.3357 65.7427 37.3357H70.1933ZM51.8852 8.20461C51.8852 5.91189 53.0316 4.09121 55.3243 2.74255C57.6845 1.32645 60.5166 0.618408 63.8209 0.618408H72.1151C77.3074 0.618408 80.9488 2.06822 83.0392 4.96783C83.7136 5.91189 84.0507 6.99082 84.0507 8.20461V35.4138C84.0507 37.7065 82.8707 39.5609 80.5105 40.977C78.2178 42.3257 75.4193 43 72.1151 43H63.8209C58.6285 43 54.9871 41.5502 52.8967 38.6506C52.2224 37.7065 51.8852 36.6276 51.8852 35.4138V8.20461Z" fill="white"/>
<path d="M109.345 18.5219C112.11 18.5219 113.492 17.5778 113.492 15.6897V9.11496C113.492 7.22684 112.11 6.28278 109.345 6.28278H101.557V18.5219H109.345ZM111.469 24.1862L125.428 43H115.212L101.557 24.5908V43H91.8462V0.618408H111.368C114.605 0.618408 117.37 1.29274 119.662 2.6414C122.022 3.99006 123.202 5.84446 123.202 8.20461V16.6C123.202 18.9602 122.056 20.8146 119.763 22.1632C117.471 23.5119 114.706 24.1862 111.469 24.1862Z" fill="white"/>
<path d="M129.952 43V0.618408H139.663V43H129.952Z" fill="white"/>
<path d="M180.554 43L173.372 18.0161L166.191 43H156.48L144.343 0.618408H154.053L161.336 26.0069L168.517 0.618408H178.329L185.409 26.0069L192.692 0.618408H202.503L190.366 43H180.554Z" fill="#4F88E4"/>
<path d="M218.615 27.3219H233.282L225.999 8.50806L218.615 27.3219ZM232.978 0.618408L248.454 43H238.744L235.203 32.9862H216.693L213.254 43H203.544L218.918 0.618408H232.978Z" fill="#4F88E4"/>
<path d="M270.736 18.5219C273.5 18.5219 274.883 17.5778 274.883 15.6897V9.11496C274.883 7.22684 273.5 6.28278 270.736 6.28278H262.947V18.5219H270.736ZM272.86 24.1862L286.818 43H276.602L262.947 24.5908V43H253.237V0.618408H272.759C275.995 0.618408 278.76 1.29274 281.053 2.6414C283.413 3.99006 284.593 5.84446 284.593 8.20461V16.6C284.593 18.9602 283.447 20.8146 281.154 22.1632C278.861 23.5119 276.097 24.1862 272.86 24.1862Z" fill="#4F88E4"/>
<path d="M319.564 43H290.534V0.618408H319.564V6.28278H300.244V17.6115H315.416V23.2759H300.244V37.3357H319.564V43Z" fill="#4F88E4"/>
<path d="M150.5 53L232.339 194.75H68.6606L150.5 53Z" fill="white"/>
<path d="M319.546 49.8257L237.721 191.552L155.895 49.8257L319.546 49.8257Z" fill="#4F88E4"/>
</svg>
