<svg width="320" height="43" viewBox="0 0 320 43" fill="none" xmlns="http://www.w3.org/2000/svg">
<path d="M0 42.3816V0H10.0138L22.0506 25.1862L34.1885 0H44.1012V42.3816H34.2897V20.8368L27.2092 35.7057H16.9931L9.71034 20.7356V42.3816H0Z" fill="white"/>
<path d="M69.9565 36.7172C72.6538 36.7172 74.0025 35.7732 74.0025 33.8851V8.49655C74.0025 6.60843 72.6538 5.66437 69.9565 5.66437H65.5059C62.7412 5.66437 61.3588 6.60843 61.3588 8.49655V33.8851C61.3588 35.7732 62.7412 36.7172 65.5059 36.7172H69.9565ZM51.6484 7.58621C51.6484 5.29349 52.7948 3.4728 55.0875 2.12414C57.4477 0.708046 60.2799 0 63.5841 0H71.8783C77.0707 0 80.712 1.44981 82.8025 4.34942C83.4768 5.29349 83.814 6.37241 83.814 7.58621V34.7954C83.814 37.0881 82.6339 38.9425 80.2737 40.3586C77.981 41.7073 75.1825 42.3816 71.8783 42.3816H63.5841C58.3917 42.3816 54.7504 40.9318 52.6599 38.0322C51.9856 37.0881 51.6484 36.0092 51.6484 34.7954V7.58621Z" fill="white"/>
<path d="M109.108 17.9034C111.873 17.9034 113.255 16.9594 113.255 15.0713V8.49655C113.255 6.60843 111.873 5.66437 109.108 5.66437H101.32V17.9034H109.108ZM111.232 23.5678L125.191 42.3816H114.975L101.32 23.9724V42.3816H91.6094V0H111.131C114.368 0 117.133 0.674329 119.425 2.02299C121.786 3.37165 122.966 5.22605 122.966 7.58621V15.9816C122.966 18.3418 121.819 20.1962 119.527 21.5448C117.234 22.8935 114.469 23.5678 111.232 23.5678Z" fill="white"/>
<path d="M129.715 42.3816V0H139.426V42.3816H129.715Z" fill="white"/>
<path d="M180.317 42.3816L173.136 17.3977L165.954 42.3816H156.244L144.106 0H153.816L161.099 25.3885L168.28 0H178.092L185.172 25.3885L192.455 0H202.267L190.129 42.3816H180.317Z" fill="#4F88E4"/>
<path d="M218.378 26.7034H233.045L225.762 7.88965L218.378 26.7034ZM232.741 0L248.217 42.3816H238.507L234.967 32.3678H216.456L213.017 42.3816H203.307L218.682 0H232.741Z" fill="#4F88E4"/>
<path d="M270.499 17.9034C273.264 17.9034 274.646 16.9594 274.646 15.0713V8.49655C274.646 6.60843 273.264 5.66437 270.499 5.66437H262.71V17.9034H270.499ZM272.623 23.5678L286.582 42.3816H276.366L262.71 23.9724V42.3816H253V0H272.522C275.759 0 278.523 0.674329 280.816 2.02299C283.176 3.37165 284.356 5.22605 284.356 7.58621V15.9816C284.356 18.3418 283.21 20.1962 280.917 21.5448C278.625 22.8935 275.86 23.5678 272.623 23.5678Z" fill="#4F88E4"/>
<path d="M319.327 42.3816H290.297V0H319.327V5.66437H300.007V16.9931H315.18V22.6575H300.007V36.7172H319.327V42.3816Z" fill="#4F88E4"/>
</svg>
